# xmcd CD database file
#
# Track frame offsets:
#	150
#	11587
#	25537
#	42122
#	55245
#	68872
#	82515
#	95560
#	110150
#	121132
#	132862
#	146215
#	161007
#	174327
#	189655
#	205205
#	217162
#	233957
#	243347
#	265772
#	278825
#	290777
#	302575
#	314822
#
# Disc length: 4407 seconds
#
# Revision: 0
# Processed by: cddbd v1.5.2PL0 Copyright (c) Steve Scherf et al.
# Submitted via: CDex 1.70beta2
#
DISCID=61113518
DTITLE=The Entertainers - Around the World
DYEAR=1900
DGENRE=Jazz
TTITLE0=Around the World (Nat King Cole)
TTITLE1=It Happened in Monterey (Perry Como)
TTITLE2=Autumn in New York (Billie Holiday)
TTITLE3=I Left My Heart in San Francisco (Tony Bennett)
TTITLE4=Chicago (Judy Garland)
TTITLE5=Jamaica Farewell (Harry Belafonte)
TTITLE6=Brazil (Frank Sinatra)
TTITLE7=One Note Samba (Astrud Gilberto)
TTITLE8=O Pato (Joao Gilberto)
TTITLE9=Uma Casa Portuguesa (Amalia Rodrigues)
TTITLE10=Volare (Dean Martin)
TTITLE11=Granada (Caterina Valente)
TTITLE12=Bouna Sera (Louis Prima)
TTITLE13=Sous le ciel de Paris (Edith Piaf)
TTITLE14=London by Night (Frank Sinatra)
TTITLE15=Isle of Capri (Bing Crosby and Rosemary Clooney)
TTITLE16=Lili Marlene (Marlene Dietrich)
TTITLE17=Hotcha Cornia (Spike Jones)
TTITLE18=I Love Paris (Ella Fitzgerald)
TTITLE19=Calcutta (Bing Crosby and Rosemary Clooney)
TTITLE20=On a Slow Boat to China (Bing Crosby and Rosemary Clooney)
TTITLE21=Japanese Skokiaan (Spike Jones)
TTITLE22=Blue Hawaii (Frank Sinatra)
TTITLE23=America (Trini Lopez)
EXTD=
EXTT0=
EXTT1=
EXTT2=
EXTT3=
EXTT4=
EXTT5=
EXTT6=
EXTT7=
EXTT8=
EXTT9=
EXTT10=
EXTT11=
EXTT12=
EXTT13=
EXTT14=
EXTT15=
EXTT16=
EXTT17=
EXTT18=
EXTT19=
EXTT20=
EXTT21=
EXTT22=
EXTT23=
PLAYORDER=
